<svg xmlns="http://www.w3.org/2000/svg" viewBox="0 0 192 192" width="192" height="192">
  <rect width="192" height="192" rx="40" fill="#D84315"/>
  <g transform="translate(96,100)" text-anchor="middle">
    <!-- Chef hat -->
    <ellipse cx="0" cy="-30" rx="38" ry="18" fill="#FFF5E1"/>
    <circle cx="-20" cy="-48" r="16" fill="#FFF5E1"/>
    <circle cx="0" cy="-54" r="18" fill="#FFF5E1"/>
    <circle cx="20" cy="-48" r="16" fill="#FFF5E1"/>
    <rect x="-30" y="-32" width="60" height="20" rx="4" fill="#FFF5E1"/>
    <!-- Steam lines -->
    <path d="M-12,16 Q-14,6 -8,0" stroke="#FFAB91" stroke-width="3" fill="none" stroke-linecap="round"/>
    <path d="M0,18 Q-2,6 4,-2" stroke="#FFAB91" stroke-width="3" fill="none" stroke-linecap="round"/>
    <path d="M12,16 Q10,6 16,0" stroke="#FFAB91" stroke-width="3" fill="none" stroke-linecap="round"/>
    <!-- Pan -->
    <ellipse cx="0" cy="32" rx="35" ry="10" fill="#5D4037"/>
    <ellipse cx="0" cy="28" rx="35" ry="10" fill="#795548"/>
    <rect x="32" y="24" width="28" height="8" rx="4" fill="#5D4037"/>
    <!-- Sparkle -->
    <g transform="translate(36,-52)" fill="#FFD54F">
      <polygon points="0,-8 2,-2 8,0 2,2 0,8 -2,2 -8,0 -2,-2"/>
    </g>
  </g>
</svg>
